<svg xmlns="http://www.w3.org/2000/svg" viewBox="0 0 512 512">
  <defs>
    <linearGradient id="g" x1="0" y1="0" x2="1" y2="1">
      <stop offset="0" stop-color="#5b8cff"/>
      <stop offset="1" stop-color="#8a5bff"/>
    </linearGradient>
  </defs>
  <rect width="512" height="512" rx="112" fill="#0b1020"/>
  <rect width="512" height="512" rx="112" fill="url(#g)" opacity="0.12"/>
  <g fill="none" stroke="url(#g)" stroke-width="22" stroke-linecap="round" stroke-linejoin="round">
    <path d="M256 120c-66 0-104 40-104 92 0 30 16 52 36 66-8 14-12 28-12 44 0 44 36 78 80 78s80-34 80-78c0-16-4-30-12-44 20-14 36-36 36-66 0-52-38-92-104-92z"/>
    <path d="M256 150v260"/>
    <path d="M256 210c-26 0-44 14-44 14M256 210c26 0 44 14 44 14"/>
    <path d="M256 290c-30 0-50 16-50 16M256 290c30 0 50 16 50 16"/>
  </g>
  <circle cx="256" cy="256" r="10" fill="#eaf0ff"/>
</svg>
